<?xml version="1.0" standalone="no"?><!DOCTYPE svg PUBLIC "-//W3C//DTD SVG 1.1//EN" "http://www.w3.org/Graphics/SVG/1.1/DTD/svg11.dtd"><svg t="1668840718309" class="icon" viewBox="0 0 1024 1024" version="1.1" xmlns="http://www.w3.org/2000/svg" p-id="3282" xmlns:xlink="http://www.w3.org/1999/xlink" width="200" height="200"><path d="M497.322667 199.936c-6.485333 3.84-11.776 7.253333-11.776 7.594667 0 0.853333 19.285333 28.842667 19.968 29.098666 0.512 0.170667 18.602667-37.888 18.261333-38.314666-2.218667-1.962667-9.898667-5.461333-12.032-5.376-1.792 0-6.741333 2.389333-14.421333 6.997333zM525.738667 206.677333c-1.365333 2.901333-5.546667 12.032-9.386667 20.224-3.754667 8.106667-6.912 15.104-6.912 15.445334 0 0.512 27.818667 41.472 46.506667 68.522666 0.938667 1.365333 3.498667-2.901333 20.394666-33.877333 10.581333-19.456 19.285333-35.669333 19.285334-36.096 0-0.597333-64.170667-38.485333-66.645334-39.338667-0.426667-0.170667-1.877333 2.133333-3.242666 5.12zM418.986667 245.674667l-61.013334 35.669333-0.256 8.448-0.170666 8.448 30.805333 37.546667c16.896 20.650667 34.133333 41.557333 38.144 46.336l7.253333 8.874666 4.352-9.301333c2.474667-5.034667 18.005333-38.314667 34.645334-73.813333 16.64-35.584 30.464-64.682667 30.72-64.682667 0.256 0 1.024 1.024 1.792 2.218667l1.365333 2.218666 1.024-2.56c0.938667-2.218667 0.853333-2.901333-0.426667-4.864l-1.450666-2.304-1.28 2.389334-1.194667 2.304-1.621333-2.048c-0.853333-1.109333-5.888-8.448-11.178667-16.298667-5.290667-7.850667-9.813333-14.250667-10.069333-14.250667-0.256 0-27.904 16.042667-61.44 35.669334zM586.837333 268.202667c-7.424 13.738667-16.384 30.208-19.882666 36.693333l-6.485334 11.861333-1.877333-1.792-1.962667-1.792-0.938666 2.133334c-0.853333 1.792-0.768 2.56 0.426666 4.352l1.365334 2.218666 1.28-2.304c1.024-1.962667 1.365333-2.133333 2.218666-1.194666 0.597333 0.682667 17.92 25.770667 38.485334 55.808 20.48 30.037333 37.802667 55.125333 38.314666 55.722666 0.853333 0.853333 3.925333-4.181333 14.848-24.32l13.824-25.344-0.170666-49.408-0.256-49.493333-32.682667-19.114667c-18.005333-10.410667-32.768-19.029333-32.853333-19.029333-0.085333 0.085333-6.229333 11.264-13.653334 25.002667z" p-id="3283"></path><path d="M471.893333 321.706667c-18.944 40.362667-34.645333 73.386667-34.901333 73.386666-0.256 0-1.024-0.853333-1.706667-1.877333l-1.109333-1.877333-1.28 2.304c-0.597333 1.28-1.28 2.304-1.536 2.304-0.170667 0-16.64-19.968-36.693333-44.373334-19.968-24.405333-36.522667-44.373333-36.693334-44.373333-0.256 0-0.426667 34.816-0.426666 77.397333l0.085333 77.482667 16.213333 9.386667c8.96 5.12 16.64 9.386667 17.066667 9.386666s9.557333-18.773333 20.309333-41.642666c10.752-22.869333 19.797333-41.898667 20.053334-42.154667 0.341333-0.341333 1.194667 0.341333 1.962666 1.365333l1.365334 2.048 1.194666-2.304c0.682667-1.28 1.450667-2.133333 1.792-1.877333 0.341333 0.170667 10.410667 12.288 22.357334 26.88 16.469333 20.053333 22.016 26.197333 22.698666 25.429333 1.365333-1.536 71.168-130.048 71.168-131.072 0-0.853333-44.458667-66.048-46.421333-68.181333-0.853333-0.853333-7.850667 13.397333-35.498667 72.362667z" p-id="3284"></path><path d="M546.816 341.930667c-5.888 10.666667-21.930667 40.192-35.669333 65.536-13.738667 25.344-25.173333 46.250667-25.429334 46.506666-0.170667 0.256-1.024-0.426667-1.792-1.450666l-1.536-1.877334-1.621333 2.048-1.621333 2.048-21.76-26.794666c-11.946667-14.677333-21.930667-26.794667-22.186667-26.794667-0.512-0.085333-39.424 82.773333-39.082667 83.114667 0.341333 0.341333 23.04 13.568 38.144 22.357333 6.741333 3.925333 12.544 7.082667 12.8 7.082667 0.256 0 7.594667-13.056 16.213334-29.013334s15.957333-29.013333 16.298666-29.013333c0.341333 0 1.109333 0.597333 1.706667 1.28 1.450667 1.706667 2.304 1.621333 2.986667-0.512 0.341333-0.938667 0.938667-1.621333 1.28-1.450667 0.426667 0.170667 14.677333 17.152 31.573333 37.802667 16.981333 20.650667 31.317333 37.461333 31.829333 37.290667 0.597333-0.170667 12.544-6.997333 26.624-15.274667l25.685334-14.933333 16.896-31.061334c9.301333-17.152 17.237333-31.317333 17.664-31.488 0.341333-0.256 1.194667 0.341333 1.877333 1.365334l1.28 1.792 1.450667-2.218667 1.450666-2.218667 8.96 12.970667c4.864 7.168 9.216 13.568 9.642667 14.250667 0.512 1.024 1.109333 1.024 3.328 0.085333l2.645333-1.024V391.253333l-2.048 3.584c-1.194667 2.048-6.570667 11.946667-12.117333 22.016-5.461333 10.069333-10.24 18.346667-10.666667 18.346667s-1.194667-0.768-1.792-1.706667c-1.024-1.536-1.109333-1.536-2.474666 0.512l-1.450667 2.218667-3.754667-5.461333c-2.133333-2.901333-19.541333-28.245333-38.656-56.149334-19.114667-27.904-34.986667-51.114667-35.413333-51.456-0.341333-0.426667-5.376 8.021333-11.264 18.773334z" p-id="3285"></path><path d="M624.469333 467.797333c-7.765333 14.250667-13.994667 26.026667-13.824 26.197334 0.085333 0.085333 10.581333-5.802667 23.296-13.141334 15.530667-9.045333 22.869333-13.738667 22.442667-14.421333-3.754667-6.144-16.64-24.405333-17.152-24.405333-0.341333 0-6.997333 11.605333-14.762667 25.770666zM468.48 485.717333c-7.68 14.250667-14.677333 26.965333-15.445333 28.416l-1.536 2.56 28.842666 16.810667c21.077333 12.288 29.610667 16.896 31.573334 16.896 1.877333 0 7.253333-2.56 17.152-8.362667 7.936-4.522667 14.336-8.533333 14.250666-8.874666-0.341333-1.109333-59.648-73.216-60.245333-73.216-0.341333 0-6.912 11.605333-14.592 25.770666zM527.36 628.48v4.693333h11.946667v-9.386666h-11.946667v4.693333zM646.826667 628.48v4.693333h11.946666v-9.386666h-11.946666v4.693333zM366.08 659.626667v32.426666h11.946667v-27.306666h15.36v-8.533334h-15.36v-19.626666h18.773333v-9.386667h-30.72v32.426667zM478.72 659.541333V692.053333h11.093333v-23.893333h7.68c8.618667 0 12.885333-1.28 14.592-4.437333 1.621333-2.901333 2.133333-24.832 0.597334-29.184-2.048-6.144-4.010667-6.912-19.968-7.253334l-13.994667-0.256v32.512z m22.869333-11.690666c0.256 12.373333 0.341333 12.202667-7.594666 11.605333l-3.754667-0.256-0.256-11.349333-0.256-11.349334 5.802667 0.256 5.802666 0.256 0.256 10.837334zM408.917333 664.32l0.256 22.613333 2.304 2.218667c3.84 3.84 13.312 4.010667 16.896 0.170667l1.706667-1.877334v2.304c0 2.304 0.085333 2.304 5.546667 2.304h5.546666v-50.346666h-11.946666l-0.170667 20.224-0.256 20.309333-2.304 0.768c-1.536 0.597333-2.986667 0.512-4.522667-0.170667L419.84 681.813333v-40.106666h-11.178667l0.256 22.613333zM527.36 666.88V692.053333h11.946667v-50.346666h-11.946667v25.173333zM553.813333 666.88V692.053333h11.946667v-20.053333c0-20.053333 0-20.138667 1.962667-20.821333 1.792-0.682667 5.632-0.426667 6.570666 0.426666 0.256 0.256 0.512 8.789333 0.597334 18.944 0.085333 10.154667 0.170667 19.2 0.170666 19.968 0.085333 1.28 0.938667 1.536 5.632 1.536h5.546667v-21.589333c0-15.445333-0.341333-22.101333-1.109333-23.637333-1.365333-2.816-6.144-5.12-10.581334-5.12-3.669333 0-7.936 1.450667-7.936 2.730666 0 0.341333-0.341333 0.682667-0.853333 0.682667-0.426667 0-0.853333-0.768-0.853333-1.706667 0-1.536-0.597333-1.706667-5.546667-1.706666H553.813333v25.173333zM605.269333 642.901333c-4.693333 2.133333-4.949333 3.328-4.949333 23.978667 0 21.248 0.341333 22.442667 6.058667 24.32 4.010667 1.365333 11.008 0.682667 13.141333-1.28 1.706667-1.536 1.706667-1.450667 1.706667 7.082667V705.706667h11.093333v-64h-5.546667c-5.376 0-5.546667 0.085333-5.546666 2.218666v2.218667l-1.621334-1.962667c-1.962667-2.474667-10.154667-3.157333-14.336-1.28z m15.274667 9.301334c0.853333 1.365333 0.853333 28.074667 0 29.354666-0.853333 1.365333-4.778667 2.218667-6.912 1.536-1.706667-0.512-1.792-1.109333-1.792-16.213333 0-14.250667 0.170667-15.701333 1.536-15.957333 2.304-0.597333 6.485333 0.256 7.168 1.28zM646.826667 666.88V692.053333h11.946666v-50.346666h-11.946666v25.173333z" p-id="3286"></path></svg>